<svg width="1024" height="1024" viewBox="0 0 1024 1024" fill="none" xmlns="http://www.w3.org/2000/svg">
<g clip-path="url(#clip0_421_20)">
<path d="M624 64H400C391.163 64 384 71.1635 384 80V448H266.083C251.371 448 244.457 466.184 255.453 475.959L318.5 532L368 576L501.37 694.551C507.432 699.94 516.568 699.94 522.63 694.551L656 576L705.5 532L768.547 475.959C779.543 466.184 772.629 448 757.917 448H640V80C640 71.1634 632.837 64 624 64Z" fill="white"/>
<path fill-rule="evenodd" clip-rule="evenodd" d="M472.138 727.437L301.771 576H56C25.0721 576 0 601.072 0 632V839C0 852.255 10.7452 863 24 863H1000C1013.25 863 1024 852.255 1024 839V632C1024 601.072 998.928 576 968 576H722.229L551.862 727.437C529.129 747.645 494.871 747.645 472.138 727.437ZM1024 902.644C1016.54 905.459 1008.45 907 1000 907H24C15.5516 907 7.46306 905.459 0 902.644V904C0 934.928 25.0721 960 56 960H968C998.928 960 1024 934.928 1024 904V902.644ZM705.5 532H318.5L368 576L501.37 694.551C507.432 699.94 516.568 699.94 522.63 694.551L656 576L705.5 532ZM192.218 748.957L192.218 749.041C192.218 756.791 198.378 763.235 206.175 763.235C213.971 763.235 220.131 756.791 220.131 749.041L219.546 745.041C218.836 735.899 218.321 720.942 218.321 711.764C218.321 704.379 218.837 690.366 219.551 680.951C219.626 679.965 219.742 679.294 219.832 678.862C219.868 678.684 219.899 678.553 219.932 678.408L219.967 678.257C219.987 678.17 220.021 678.019 220.05 677.861L220.05 677.859C220.071 677.744 220.138 677.375 220.128 676.925C219.962 669.319 213.863 663.05 206.175 663.05C198.49 663.05 192.394 669.312 192.222 676.912C192.211 677.359 192.273 677.72 192.293 677.834L192.294 677.836C192.323 678.004 192.358 678.161 192.379 678.252L192.387 678.29L192.421 678.434L192.421 678.436C192.436 678.502 192.451 678.565 192.466 678.632C192.482 678.703 192.498 678.778 192.516 678.866C192.606 679.299 192.724 679.968 192.799 680.951C193.512 690.366 194.028 704.379 194.028 711.764C194.028 712.384 194.026 713.031 194.021 713.701C189.879 709.667 186.052 705.866 183.539 703.293C178.706 698.346 162.318 680.903 155.389 672.876C155.068 671.902 154.646 670.974 154.136 670.107C151.721 666.002 147.281 663.193 142.153 663.193C134.465 663.193 128.366 669.462 128.2 677.068C128.187 677.683 128.305 678.223 128.346 678.411L128.35 678.43C128.373 678.535 128.399 678.649 128.42 678.74L128.43 678.782C128.455 678.889 128.478 678.991 128.502 679.1C128.589 679.507 128.704 680.124 128.777 681.094C129.491 690.509 130.007 704.522 130.007 711.907C130.007 721.085 129.492 736.042 128.782 745.184L128.197 749.184C128.197 756.934 134.357 763.378 142.153 763.378C149.95 763.378 156.11 756.934 156.11 749.184L155.524 745.184C154.815 736.042 154.3 721.085 154.3 711.907C154.3 710.969 154.308 709.922 154.324 708.788C159.503 713.857 164.141 718.472 166.295 720.678C172.587 727.12 186.215 741.805 192.218 748.957Z" fill="white"/>
</g>
<defs>
<clipPath id="clip0_421_20">
<rect width="1024" height="1024" fill="white"/>
</clipPath>
</defs>
</svg>
