<svg width="1024" height="1024" viewBox="0 0 1024 1024" fill="none" xmlns="http://www.w3.org/2000/svg">
<path d="M192 71.6027C188.686 71.6027 186 74.289 186 77.6027V941.603C186 944.916 188.686 947.603 192 947.603H836C839.314 947.603 842 944.916 842 941.603V269C842 267.405 841.365 265.876 840.236 264.751L648.236 73.3534C647.111 72.2323 645.588 71.6027 644 71.6027H192Z" fill="url(#paint0_linear_417_28)" stroke="#797774" stroke-width="12" stroke-linejoin="round"/>
<mask id="path-2-inside-1_417_28" fill="white">
<path d="M636 263.5V72.8743C636 66.2256 644.01 62.8645 648.754 67.5225L842.91 258.148C847.702 262.853 844.371 271 837.656 271H643.5C639.358 271 636 267.642 636 263.5Z"/>
</mask>
<path d="M842.91 258.148L851.317 249.586L851.317 249.586L842.91 258.148ZM648.754 67.5225L640.347 76.0853L640.347 76.0853L648.754 67.5225ZM624 72.8743V263.5H648V72.8743H624ZM643.5 283H837.656V259H643.5V283ZM851.317 249.586L657.162 58.9598L640.347 76.0853L834.503 266.711L851.317 249.586ZM837.656 283C855.115 283 863.775 261.817 851.317 249.586L834.503 266.711C831.628 263.888 833.627 259 837.656 259V283ZM624 263.5C624 274.27 632.73 283 643.5 283V259C645.985 259 648 261.015 648 263.5H624ZM648 72.8743C648 76.8635 643.194 78.8801 640.347 76.0853L657.162 58.9598C644.827 46.849 624 55.5877 624 72.8743H648Z" fill="#797774" mask="url(#path-2-inside-1_417_28)"/>
<rect x="291" y="66" width="258" height="11" fill="#797774"/>
<path d="M585.9 320H438.771C429.907 320 422.732 327.207 422.771 336.071L423.903 589.544L353.202 589.079C338.438 588.982 331.432 607.229 342.467 617.038L501.651 758.535C507.721 763.93 516.871 763.923 522.932 758.516L681.876 616.74C692.845 606.956 685.924 588.8 671.226 588.8H601.9V336C601.9 327.163 594.736 320 585.9 320Z" fill="url(#paint1_linear_417_28)"/>
<path d="M585.9 320H438.771C429.907 320 422.732 327.207 422.771 336.071L423.903 589.544L353.202 589.079C338.438 588.982 331.432 607.229 342.467 617.038L501.651 758.535C507.721 763.93 516.871 763.923 522.932 758.516L681.876 616.74C692.845 606.956 685.924 588.8 671.226 588.8H601.9V336C601.9 327.163 594.736 320 585.9 320Z" fill="#047BDC" style="mix-blend-mode:color"/>
<g opacity="0.46">
<path d="M585.9 320H438.7C429.863 320 422.7 327.163 422.7 336V588.8H352.783C338.071 588.8 331.157 606.984 342.153 616.759L501.67 758.551C507.732 763.94 516.867 763.94 522.93 758.551L682.446 616.759C693.442 606.984 686.529 588.8 671.816 588.8H601.9V336C601.9 327.163 594.736 320 585.9 320Z" fill="url(#paint2_linear_417_28)"/>
<path d="M585.9 320H438.7C429.863 320 422.7 327.163 422.7 336V588.8H352.783C338.071 588.8 331.157 606.984 342.153 616.759L501.67 758.551C507.732 763.94 516.867 763.94 522.93 758.551L682.446 616.759C693.442 606.984 686.529 588.8 671.816 588.8H601.9V336C601.9 327.163 594.736 320 585.9 320Z" fill="url(#paint3_linear_417_28)" fill-opacity="0.45"/>
<path d="M585.9 320H438.7C429.863 320 422.7 327.163 422.7 336V588.8H352.783C338.071 588.8 331.157 606.984 342.153 616.759L501.67 758.551C507.732 763.94 516.867 763.94 522.93 758.551L682.446 616.759C693.442 606.984 686.529 588.8 671.816 588.8H601.9V336C601.9 327.163 594.736 320 585.9 320Z" fill="url(#paint4_linear_417_28)" fill-opacity="0.3"/>
</g>
<defs>
<linearGradient id="paint0_linear_417_28" x1="514" y1="77.6028" x2="514" y2="941.603" gradientUnits="userSpaceOnUse">
<stop stop-color="#DBDBDB"/>
<stop offset="0.0001" stop-color="#FAFAFA"/>
<stop offset="1" stop-color="#FAFAFA"/>
</linearGradient>
<linearGradient id="paint1_linear_417_28" x1="383.099" y1="290.281" x2="570.415" y2="788.913" gradientUnits="userSpaceOnUse">
<stop stop-color="#50E5FD"/>
<stop offset="1" stop-color="#19A6EC"/>
</linearGradient>
<linearGradient id="paint2_linear_417_28" x1="512.3" y1="320" x2="512.3" y2="768" gradientUnits="userSpaceOnUse">
<stop stop-color="#0079D5"/>
<stop offset="1" stop-color="#0367CC"/>
</linearGradient>
<linearGradient id="paint3_linear_417_28" x1="512.3" y1="320" x2="512.3" y2="768" gradientUnits="userSpaceOnUse">
<stop stop-color="#0085FF"/>
<stop offset="1" stop-color="#0085FF" stop-opacity="0"/>
</linearGradient>
<linearGradient id="paint4_linear_417_28" x1="512.3" y1="320" x2="512.3" y2="768" gradientUnits="userSpaceOnUse">
<stop stop-color="#00C2FF"/>
<stop offset="1" stop-color="#00D1FF" stop-opacity="0"/>
</linearGradient>
</defs>
</svg>
