<svg width="1024" height="1024" viewBox="0 0 1024 1024" fill="none" xmlns="http://www.w3.org/2000/svg">
<g clip-path="url(#clip0_414_5)">
<rect y="576" width="1024" height="384" rx="56" fill="url(#paint0_linear_414_5)"/>
<rect y="576" width="1024" height="384" rx="56" fill="black" fill-opacity="0.28" style="mix-blend-mode:overlay"/>
<g filter="url(#filter0_d_414_5)">
<path d="M0 632C0 601.072 25.0721 576 56 576H968C998.928 576 1024 601.072 1024 632V839C1024 852.255 1013.25 863 1000 863H24C10.7452 863 0 852.255 0 839V632Z" fill="url(#paint1_linear_414_5)"/>
</g>
<g filter="url(#filter1_ddd_414_5)">
<path fill-rule="evenodd" clip-rule="evenodd" d="M132.199 677.155C132.19 677.599 132.588 678.442 132.766 680.792Z" fill="white"/>
<path fill-rule="evenodd" clip-rule="evenodd" d="M196.221 677.012C196.209 677.287 196.609 678.299 196.787 680.649Z" fill="white"/>
<path d="M142.153 759.378C147.652 759.378 152.11 754.814 152.11 749.184C151.92 749.184 151.736 748.015 151.564 745.847C150.831 736.619 150.3 721.29 150.3 711.907C150.3 708.705 150.395 704.294 150.56 699.549C151.645 700.597 152.742 701.66 153.834 702.722C160.267 708.977 166.519 715.182 169.157 717.883C175.609 724.49 189.749 739.729 195.65 746.825L195.725 746.916C195.938 747.172 196.134 747.411 196.312 747.634C196.25 748.094 196.218 748.564 196.218 749.041C196.218 754.671 200.676 759.235 206.175 759.235C211.674 759.235 216.131 754.671 216.131 749.041C215.941 749.041 215.758 747.872 215.585 745.704C214.852 736.476 214.321 721.147 214.321 711.764C214.321 704.273 214.841 690.158 215.562 680.649C215.74 678.299 216.135 677.287 216.129 677.012C216.008 671.49 211.598 667.05 206.175 667.05C200.751 667.05 196.341 671.49 196.221 677.012C196.209 677.287 196.609 678.299 196.787 680.649C197.508 690.158 198.028 704.273 198.028 711.764C198.028 714.962 197.967 718.851 197.856 722.955C196.734 721.884 195.597 720.792 194.463 719.699C189.126 714.552 183.87 709.357 180.677 706.088C175.687 700.979 158.445 682.625 151.794 674.829C151.551 673.869 151.176 672.963 150.688 672.135C148.946 669.174 145.776 667.193 142.153 667.193C136.73 667.193 132.32 671.632 132.199 677.155C132.19 677.599 132.588 678.442 132.766 680.792C133.487 690.301 134.007 704.416 134.007 711.907C134.007 721.29 133.476 736.619 132.743 745.847C132.57 748.015 132.387 749.184 132.197 749.184C132.197 754.814 136.654 759.378 142.153 759.378Z" fill="white"/>
<path d="M132.197 677.155L132.199 677.155M132.199 677.155C132.19 677.599 132.588 678.442 132.766 680.792C133.487 690.301 134.007 704.416 134.007 711.907C134.007 721.29 133.476 736.619 132.743 745.847C132.57 748.015 132.387 749.184 132.197 749.184C132.197 754.814 136.654 759.378 142.153 759.378C147.652 759.378 152.11 754.814 152.11 749.184C151.92 749.184 151.736 748.015 151.564 745.847C150.831 736.619 150.3 721.29 150.3 711.907C150.3 708.705 150.395 704.294 150.56 699.549C151.645 700.597 152.742 701.66 153.834 702.722C160.267 708.977 166.519 715.182 169.157 717.883C175.609 724.49 189.749 739.729 195.65 746.825M132.199 677.155C132.32 671.632 136.73 667.193 142.153 667.193C145.776 667.193 148.946 669.174 150.688 672.135C151.176 672.963 151.551 673.869 151.794 674.829C158.445 682.625 175.687 700.979 180.677 706.088C183.87 709.357 189.126 714.552 194.463 719.699C195.597 720.792 196.734 721.884 197.856 722.955C197.967 718.851 198.028 714.962 198.028 711.764C198.028 704.273 197.508 690.158 196.787 680.649C196.609 678.299 196.209 677.287 196.221 677.012M196.218 677.012L196.221 677.012M216.131 677.012L216.129 677.012M196.221 677.012C196.341 671.49 200.751 667.05 206.175 667.05C211.598 667.05 216.008 671.49 216.129 677.012M216.129 677.012C216.135 677.287 215.74 678.299 215.562 680.649C214.841 690.158 214.321 704.273 214.321 711.764C214.321 721.147 214.852 736.476 215.585 745.704C215.758 747.872 215.941 749.041 216.131 749.041C216.131 754.671 211.674 759.235 206.175 759.235C200.676 759.235 196.218 754.671 196.218 749.041C196.218 748.564 196.25 748.094 196.312 747.634C196.134 747.411 195.938 747.172 195.725 746.916M195.725 746.916C195.7 746.886 195.675 746.855 195.65 746.825M195.725 746.916L195.65 746.825" stroke="white" stroke-width="8"/>
</g>
<g filter="url(#filter2_d_414_5)">
<path d="M624 64H400.072C391.207 64 384.032 71.2071 384.072 80.0714L385.719 449.063L266.502 448.279C251.738 448.182 244.732 466.429 255.767 476.238L501.352 694.535C507.422 699.93 516.571 699.923 522.632 694.516L767.676 475.94C778.646 466.156 771.725 448 757.026 448H640V80C640 71.1634 632.837 64 624 64Z" fill="url(#paint2_linear_414_5)"/>
<path d="M624 64H400.072C391.207 64 384.032 71.2071 384.072 80.0714L385.719 449.063L266.502 448.279C251.738 448.182 244.732 466.429 255.767 476.238L501.352 694.535C507.422 699.93 516.571 699.923 522.632 694.516L767.676 475.94C778.646 466.156 771.725 448 757.026 448H640V80C640 71.1634 632.837 64 624 64Z" fill="#047BDC" style="mix-blend-mode:color"/>
<g opacity="0.46">
<path d="M624 64H400C391.163 64 384 71.1635 384 80V448H266.083C251.371 448 244.457 466.184 255.453 475.959L501.37 694.551C507.432 699.94 516.568 699.94 522.63 694.551L768.547 475.959C779.543 466.184 772.629 448 757.917 448H640V80C640 71.1634 632.837 64 624 64Z" fill="url(#paint3_linear_414_5)"/>
<path d="M624 64H400C391.163 64 384 71.1635 384 80V448H266.083C251.371 448 244.457 466.184 255.453 475.959L501.37 694.551C507.432 699.94 516.568 699.94 522.63 694.551L768.547 475.959C779.543 466.184 772.629 448 757.917 448H640V80C640 71.1634 632.837 64 624 64Z" fill="url(#paint4_linear_414_5)" fill-opacity="0.45"/>
<path d="M624 64H400C391.163 64 384 71.1635 384 80V448H266.083C251.371 448 244.457 466.184 255.453 475.959L501.37 694.551C507.432 699.94 516.568 699.94 522.63 694.551L768.547 475.959C779.543 466.184 772.629 448 757.917 448H640V80C640 71.1634 632.837 64 624 64Z" fill="url(#paint5_linear_414_5)" fill-opacity="0.3"/>
</g>
</g>
</g>
<defs>
<filter id="filter0_d_414_5" x="-24" y="576" width="1072" height="347" filterUnits="userSpaceOnUse" color-interpolation-filters="sRGB">
<feFlood flood-opacity="0" result="BackgroundImageFix"/>
<feColorMatrix in="SourceAlpha" type="matrix" values="0 0 0 0 0 0 0 0 0 0 0 0 0 0 0 0 0 0 127 0" result="hardAlpha"/>
<feOffset dy="36"/>
<feGaussianBlur stdDeviation="12"/>
<feComposite in2="hardAlpha" operator="out"/>
<feColorMatrix type="matrix" values="0 0 0 0 0 0 0 0 0 0 0 0 0 0 0 0 0 0 0.18 0"/>
<feBlend mode="normal" in2="BackgroundImageFix" result="effect1_dropShadow_414_5"/>
<feBlend mode="normal" in="SourceGraphic" in2="effect1_dropShadow_414_5" result="shape"/>
</filter>
<filter id="filter1_ddd_414_5" x="92.1968" y="655.05" width="163.934" height="180.328" filterUnits="userSpaceOnUse" color-interpolation-filters="sRGB">
<feFlood flood-opacity="0" result="BackgroundImageFix"/>
<feColorMatrix in="SourceAlpha" type="matrix" values="0 0 0 0 0 0 0 0 0 0 0 0 0 0 0 0 0 0 127 0" result="hardAlpha"/>
<feOffset dy="12"/>
<feGaussianBlur stdDeviation="10"/>
<feComposite in2="hardAlpha" operator="out"/>
<feColorMatrix type="matrix" values="0 0 0 0 1 0 0 0 0 1 0 0 0 0 1 0 0 0 0.3 0"/>
<feBlend mode="normal" in2="BackgroundImageFix" result="effect1_dropShadow_414_5"/>
<feColorMatrix in="SourceAlpha" type="matrix" values="0 0 0 0 0 0 0 0 0 0 0 0 0 0 0 0 0 0 127 0" result="hardAlpha"/>
<feOffset dy="12"/>
<feGaussianBlur stdDeviation="10"/>
<feComposite in2="hardAlpha" operator="out"/>
<feColorMatrix type="matrix" values="0 0 0 0 1 0 0 0 0 1 0 0 0 0 1 0 0 0 0.1 0"/>
<feBlend mode="normal" in2="effect1_dropShadow_414_5" result="effect2_dropShadow_414_5"/>
<feColorMatrix in="SourceAlpha" type="matrix" values="0 0 0 0 0 0 0 0 0 0 0 0 0 0 0 0 0 0 127 0" result="hardAlpha"/>
<feOffset dy="36"/>
<feGaussianBlur stdDeviation="18"/>
<feComposite in2="hardAlpha" operator="out"/>
<feColorMatrix type="matrix" values="0 0 0 0 1 0 0 0 0 1 0 0 0 0 1 0 0 0 0.25 0"/>
<feBlend mode="normal" in2="effect2_dropShadow_414_5" result="effect3_dropShadow_414_5"/>
<feBlend mode="normal" in="SourceGraphic" in2="effect3_dropShadow_414_5" result="shape"/>
</filter>
<filter id="filter2_d_414_5" x="126.051" y="-8" width="771.897" height="882.593" filterUnits="userSpaceOnUse" color-interpolation-filters="sRGB">
<feFlood flood-opacity="0" result="BackgroundImageFix"/>
<feColorMatrix in="SourceAlpha" type="matrix" values="0 0 0 0 0 0 0 0 0 0 0 0 0 0 0 0 0 0 127 0" result="hardAlpha"/>
<feOffset dy="52"/>
<feGaussianBlur stdDeviation="62"/>
<feComposite in2="hardAlpha" operator="out"/>
<feColorMatrix type="matrix" values="0 0 0 0 0 0 0 0 0 0 0 0 0 0 0 0 0 0 0.41 0"/>
<feBlend mode="normal" in2="BackgroundImageFix" result="effect1_dropShadow_414_5"/>
<feBlend mode="normal" in="SourceGraphic" in2="effect1_dropShadow_414_5" result="shape"/>
</filter>
<linearGradient id="paint0_linear_414_5" x1="35.6721" y1="576" x2="1180.76" y2="754.397" gradientUnits="userSpaceOnUse">
<stop stop-color="#8A9198"/>
<stop offset="1" stop-color="#55626D"/>
</linearGradient>
<linearGradient id="paint1_linear_414_5" x1="35.6722" y1="576" x2="1127.14" y2="931.545" gradientUnits="userSpaceOnUse">
<stop stop-color="#8A9198"/>
<stop offset="1" stop-color="#55626D"/>
</linearGradient>
<linearGradient id="paint2_linear_414_5" x1="327.428" y1="21.5447" x2="595.022" y2="733.875" gradientUnits="userSpaceOnUse">
<stop stop-color="#50E5FD"/>
<stop offset="1" stop-color="#19A6EC"/>
</linearGradient>
<linearGradient id="paint3_linear_414_5" x1="512" y1="64" x2="512" y2="704" gradientUnits="userSpaceOnUse">
<stop stop-color="#0079D5"/>
<stop offset="1" stop-color="#0367CC"/>
</linearGradient>
<linearGradient id="paint4_linear_414_5" x1="512" y1="64" x2="512" y2="704" gradientUnits="userSpaceOnUse">
<stop stop-color="#0085FF"/>
<stop offset="1" stop-color="#0085FF" stop-opacity="0"/>
</linearGradient>
<linearGradient id="paint5_linear_414_5" x1="512" y1="64" x2="512" y2="704" gradientUnits="userSpaceOnUse">
<stop stop-color="#00C2FF"/>
<stop offset="1" stop-color="#00D1FF" stop-opacity="0"/>
</linearGradient>
<clipPath id="clip0_414_5">
<rect width="1024" height="1024" fill="white"/>
</clipPath>
</defs>
</svg>
