<svg width="1024" height="1024" viewBox="0 0 1024 1024" fill="none" xmlns="http://www.w3.org/2000/svg">
<path d="M192 71.6027C188.686 71.6027 186 74.289 186 77.6027V941.603C186 944.916 188.686 947.603 192 947.603H836C839.314 947.603 842 944.916 842 941.603V269C842 267.405 841.365 265.876 840.236 264.751L648.236 73.3534C647.111 72.2323 645.588 71.6027 644 71.6027H192Z" fill="url(#paint0_linear_417_56)" stroke="#797774" stroke-width="12" stroke-linejoin="round"/>
<mask id="path-2-inside-1_417_56" fill="white">
<path d="M636 263.5V72.8743C636 66.2256 644.01 62.8645 648.754 67.5225L842.91 258.148C847.702 262.853 844.371 271 837.656 271H643.5C639.358 271 636 267.642 636 263.5Z"/>
</mask>
<path d="M842.91 258.148L851.317 249.586L851.317 249.586L842.91 258.148ZM648.754 67.5225L640.347 76.0853L640.347 76.0853L648.754 67.5225ZM624 72.8743V263.5H648V72.8743H624ZM643.5 283H837.656V259H643.5V283ZM851.317 249.586L657.162 58.9598L640.347 76.0853L834.503 266.711L851.317 249.586ZM837.656 283C855.115 283 863.775 261.817 851.317 249.586L834.503 266.711C831.628 263.888 833.627 259 837.656 259V283ZM624 263.5C624 274.27 632.73 283 643.5 283V259C645.985 259 648 261.015 648 263.5H624ZM648 72.8743C648 76.8635 643.194 78.8801 640.347 76.0853L657.162 58.9598C644.827 46.849 624 55.5877 624 72.8743H648Z" fill="#797774" mask="url(#path-2-inside-1_417_56)"/>
<rect x="291" y="66" width="258" height="11" fill="#797774"/>
<rect x="384" y="768.283" width="576" height="255.717" rx="45" fill="#FFC225"/>
<path d="M514.701 957V835.395H551.496C560.626 835.395 568.656 836.605 575.586 839.025C582.516 841.335 587.961 845.185 591.921 850.575C595.991 855.855 598.026 863.115 598.026 872.355C598.026 881.155 596.046 888.415 592.086 894.135C588.126 899.745 582.681 903.98 575.751 906.84C568.931 909.59 561.066 910.965 552.156 910.965H533.841V957H514.701ZM533.841 895.455H550.506C560.076 895.455 567.226 893.585 571.956 889.845C576.686 886.105 579.051 880.275 579.051 872.355C579.051 864.215 576.576 858.605 571.626 855.525C566.676 852.445 559.361 850.905 549.681 850.905H533.841V895.455ZM634.893 957V835.395H674.658C683.018 835.395 690.498 836.55 697.098 838.86C703.698 841.06 708.923 844.745 712.773 849.915C716.623 854.975 718.548 861.905 718.548 870.705C718.548 879.175 716.623 886.16 712.773 891.66C708.923 897.16 703.698 901.285 697.098 904.035C690.498 906.675 683.018 907.995 674.658 907.995H654.033V957H634.893ZM654.033 892.65H672.348C681.148 892.65 687.858 890.835 692.478 887.205C697.208 883.465 699.573 877.965 699.573 870.705C699.573 863.335 697.208 858.22 692.478 855.36C687.858 852.39 681.148 850.905 672.348 850.905H654.033V892.65ZM701.223 957L671.028 902.88L685.218 891.825L722.838 957H701.223ZM756.374 957V835.395H828.149V851.565H775.514V885.39H820.064V901.56H775.514V940.665H829.964V957H756.374Z" fill="black"/>
<path d="M514.701 957H511.701V960H514.701V957ZM514.701 835.395V832.395H511.701V835.395H514.701ZM575.586 839.025L574.596 841.857L574.617 841.864L574.637 841.871L575.586 839.025ZM591.921 850.575L589.503 852.351L589.523 852.379L589.544 852.407L591.921 850.575ZM592.086 894.135L594.536 895.865L594.544 895.854L594.552 895.843L592.086 894.135ZM575.751 906.84L576.872 909.622L576.884 909.618L576.895 909.613L575.751 906.84ZM533.841 910.965V907.965H530.841V910.965H533.841ZM533.841 957V960H536.841V957H533.841ZM533.841 895.455H530.841V898.455H533.841V895.455ZM571.956 889.845L573.816 892.198L573.816 892.198L571.956 889.845ZM571.626 855.525L573.21 852.978L573.21 852.978L571.626 855.525ZM533.841 850.905V847.905H530.841V850.905H533.841ZM517.701 957V835.395H511.701V957H517.701ZM514.701 838.395H551.496V832.395H514.701V838.395ZM551.496 838.395C560.368 838.395 568.051 839.572 574.596 841.857L576.575 836.193C569.26 833.638 560.883 832.395 551.496 832.395V838.395ZM574.637 841.871C581.035 844.004 585.944 847.507 589.503 852.351L594.338 848.799C589.977 842.863 583.996 838.666 576.534 836.179L574.637 841.871ZM589.544 852.407C593.079 856.992 595.026 863.526 595.026 872.355H601.026C601.026 862.704 598.902 854.718 594.297 848.743L589.544 852.407ZM595.026 872.355C595.026 880.707 593.15 887.328 589.619 892.427L594.552 895.843C598.941 889.502 601.026 881.603 601.026 872.355H595.026ZM589.635 892.405C586.032 897.508 581.061 901.403 574.606 904.067L576.895 909.613C584.3 906.557 590.219 901.982 594.536 895.865L589.635 892.405ZM574.629 904.058C568.232 906.637 560.76 907.965 552.156 907.965V913.965C561.371 913.965 569.629 912.543 576.872 909.622L574.629 904.058ZM552.156 907.965H533.841V913.965H552.156V907.965ZM530.841 910.965V957H536.841V910.965H530.841ZM533.841 954H514.701V960H533.841V954ZM533.841 898.455H550.506V892.455H533.841V898.455ZM550.506 898.455C560.38 898.455 568.325 896.54 573.816 892.198L570.095 887.492C566.126 890.63 559.771 892.455 550.506 892.455V898.455ZM573.816 892.198C579.479 887.721 582.051 880.882 582.051 872.355H576.051C576.051 879.668 573.892 884.489 570.095 887.492L573.816 892.198ZM582.051 872.355C582.051 863.632 579.367 856.808 573.21 852.978L570.041 858.072C573.784 860.402 576.051 864.798 576.051 872.355H582.051ZM573.21 852.978C567.566 849.466 559.59 847.905 549.681 847.905V853.905C559.131 853.905 565.785 855.424 570.041 858.072L573.21 852.978ZM549.681 847.905H533.841V853.905H549.681V847.905ZM530.841 850.905V895.455H536.841V850.905H530.841ZM634.893 957H631.893V960H634.893V957ZM634.893 835.395V832.395H631.893V835.395H634.893ZM697.098 838.86L696.107 841.692L696.128 841.699L696.149 841.706L697.098 838.86ZM712.773 849.915L710.367 851.707L710.376 851.719L710.385 851.732L712.773 849.915ZM712.773 891.66L710.315 889.94L710.315 889.94L712.773 891.66ZM697.098 904.035L698.212 906.82L698.232 906.812L698.252 906.804L697.098 904.035ZM654.033 907.995V904.995H651.033V907.995H654.033ZM654.033 957V960H657.033V957H654.033ZM654.033 892.65H651.033V895.65H654.033V892.65ZM692.478 887.205L694.331 889.564L694.338 889.558L692.478 887.205ZM692.478 855.36L690.855 857.884L690.89 857.906L690.925 857.927L692.478 855.36ZM654.033 850.905V847.905H651.033V850.905H654.033ZM701.223 957L698.603 958.462L699.461 960H701.223V957ZM671.028 902.88L669.184 900.513L667.154 902.095L668.408 904.342L671.028 902.88ZM685.218 891.825L687.816 890.325L686.093 887.34L683.374 889.458L685.218 891.825ZM722.838 957V960H728.033L725.436 955.5L722.838 957ZM637.893 957V835.395H631.893V957H637.893ZM634.893 838.395H674.658V832.395H634.893V838.395ZM674.658 838.395C682.744 838.395 689.881 839.512 696.107 841.692L698.089 836.028C691.115 833.588 683.291 832.395 674.658 832.395V838.395ZM696.149 841.706C702.215 843.728 706.913 847.069 710.367 851.707L715.179 848.123C710.933 842.421 705.18 838.392 698.046 836.014L696.149 841.706ZM710.385 851.732C713.71 856.102 715.548 862.314 715.548 870.705H721.548C721.548 861.496 719.535 853.848 715.16 848.098L710.385 851.732ZM715.548 870.705C715.548 878.721 713.729 885.062 710.315 889.94L715.23 893.38C719.516 887.258 721.548 879.629 721.548 870.705H715.548ZM710.315 889.94C706.813 894.943 702.054 898.72 695.944 901.266L698.252 906.804C705.341 903.85 711.033 899.377 715.23 893.38L710.315 889.94ZM695.984 901.25C689.794 903.725 682.702 904.995 674.658 904.995V910.995C683.333 910.995 691.201 909.625 698.212 906.82L695.984 901.25ZM674.658 904.995H654.033V910.995H674.658V904.995ZM651.033 907.995V957H657.033V907.995H651.033ZM654.033 954H634.893V960H654.033V954ZM654.033 895.65H672.348V889.65H654.033V895.65ZM672.348 895.65C681.5 895.65 688.977 893.771 694.331 889.564L690.624 884.846C686.739 887.899 680.795 889.65 672.348 889.65V895.65ZM694.338 889.558C699.937 885.132 702.573 878.674 702.573 870.705H696.573C696.573 877.256 694.479 881.798 690.617 884.852L694.338 889.558ZM702.573 870.705C702.573 862.68 699.952 856.373 694.03 852.793L690.925 857.927C694.464 860.067 696.573 863.99 696.573 870.705H702.573ZM694.1 852.836C688.786 849.42 681.408 847.905 672.348 847.905V853.905C680.888 853.905 686.93 855.36 690.855 857.884L694.1 852.836ZM672.348 847.905H654.033V853.905H672.348V847.905ZM651.033 850.905V892.65H657.033V850.905H651.033ZM703.843 955.538L673.648 901.418L668.408 904.342L698.603 958.462L703.843 955.538ZM672.871 905.247L687.061 894.192L683.374 889.458L669.184 900.513L672.871 905.247ZM682.619 893.325L720.239 958.5L725.436 955.5L687.816 890.325L682.619 893.325ZM722.838 954H701.223V960H722.838V954ZM756.374 957H753.374V960H756.374V957ZM756.374 835.395V832.395H753.374V835.395H756.374ZM828.149 835.395H831.149V832.395H828.149V835.395ZM828.149 851.565V854.565H831.149V851.565H828.149ZM775.514 851.565V848.565H772.514V851.565H775.514ZM775.514 885.39H772.514V888.39H775.514V885.39ZM820.064 885.39H823.064V882.39H820.064V885.39ZM820.064 901.56V904.56H823.064V901.56H820.064ZM775.514 901.56V898.56H772.514V901.56H775.514ZM775.514 940.665H772.514V943.665H775.514V940.665ZM829.964 940.665H832.964V937.665H829.964V940.665ZM829.964 957V960H832.964V957H829.964ZM759.374 957V835.395H753.374V957H759.374ZM756.374 838.395H828.149V832.395H756.374V838.395ZM825.149 835.395V851.565H831.149V835.395H825.149ZM828.149 848.565H775.514V854.565H828.149V848.565ZM772.514 851.565V885.39H778.514V851.565H772.514ZM775.514 888.39H820.064V882.39H775.514V888.39ZM817.064 885.39V901.56H823.064V885.39H817.064ZM820.064 898.56H775.514V904.56H820.064V898.56ZM772.514 901.56V940.665H778.514V901.56H772.514ZM775.514 943.665H829.964V937.665H775.514V943.665ZM826.964 940.665V957H832.964V940.665H826.964ZM829.964 954H756.374V960H829.964V954Z" fill="black"/>
<path d="M585.9 320H438.771C429.907 320 422.732 327.207 422.771 336.071L423.903 589.544L353.202 589.079C338.438 588.982 331.432 607.229 342.467 617.038L501.651 758.535C507.721 763.93 516.871 763.923 522.932 758.516L681.876 616.74C692.845 606.956 685.924 588.8 671.226 588.8H601.9V336C601.9 327.163 594.736 320 585.9 320Z" fill="url(#paint1_linear_417_56)"/>
<path d="M585.9 320H438.771C429.907 320 422.732 327.207 422.771 336.071L423.903 589.544L353.202 589.079C338.438 588.982 331.432 607.229 342.467 617.038L501.651 758.535C507.721 763.93 516.871 763.923 522.932 758.516L681.876 616.74C692.845 606.956 685.924 588.8 671.226 588.8H601.9V336C601.9 327.163 594.736 320 585.9 320Z" fill="#047BDC" style="mix-blend-mode:color"/>
<g opacity="0.46">
<path d="M585.9 320H438.7C429.863 320 422.7 327.163 422.7 336V588.8H352.783C338.071 588.8 331.157 606.984 342.153 616.759L501.67 758.551C507.732 763.94 516.867 763.94 522.93 758.551L682.446 616.759C693.442 606.984 686.529 588.8 671.816 588.8H601.9V336C601.9 327.163 594.736 320 585.9 320Z" fill="url(#paint2_linear_417_56)"/>
<path d="M585.9 320H438.7C429.863 320 422.7 327.163 422.7 336V588.8H352.783C338.071 588.8 331.157 606.984 342.153 616.759L501.67 758.551C507.732 763.94 516.867 763.94 522.93 758.551L682.446 616.759C693.442 606.984 686.529 588.8 671.816 588.8H601.9V336C601.9 327.163 594.736 320 585.9 320Z" fill="url(#paint3_linear_417_56)" fill-opacity="0.45"/>
<path d="M585.9 320H438.7C429.863 320 422.7 327.163 422.7 336V588.8H352.783C338.071 588.8 331.157 606.984 342.153 616.759L501.67 758.551C507.732 763.94 516.867 763.94 522.93 758.551L682.446 616.759C693.442 606.984 686.529 588.8 671.816 588.8H601.9V336C601.9 327.163 594.736 320 585.9 320Z" fill="url(#paint4_linear_417_56)" fill-opacity="0.3"/>
</g>
<defs>
<linearGradient id="paint0_linear_417_56" x1="514" y1="77.6028" x2="514" y2="941.603" gradientUnits="userSpaceOnUse">
<stop stop-color="#DBDBDB"/>
<stop offset="0.0001" stop-color="#FAFAFA"/>
<stop offset="1" stop-color="#FAFAFA"/>
</linearGradient>
<linearGradient id="paint1_linear_417_56" x1="383.099" y1="290.281" x2="570.415" y2="788.913" gradientUnits="userSpaceOnUse">
<stop stop-color="#50E5FD"/>
<stop offset="1" stop-color="#19A6EC"/>
</linearGradient>
<linearGradient id="paint2_linear_417_56" x1="512.3" y1="320" x2="512.3" y2="768" gradientUnits="userSpaceOnUse">
<stop stop-color="#0079D5"/>
<stop offset="1" stop-color="#0367CC"/>
</linearGradient>
<linearGradient id="paint3_linear_417_56" x1="512.3" y1="320" x2="512.3" y2="768" gradientUnits="userSpaceOnUse">
<stop stop-color="#0085FF"/>
<stop offset="1" stop-color="#0085FF" stop-opacity="0"/>
</linearGradient>
<linearGradient id="paint4_linear_417_56" x1="512.3" y1="320" x2="512.3" y2="768" gradientUnits="userSpaceOnUse">
<stop stop-color="#00C2FF"/>
<stop offset="1" stop-color="#00D1FF" stop-opacity="0"/>
</linearGradient>
</defs>
</svg>
