<svg width="1024" height="1024" viewBox="0 0 1024 1024" fill="none" xmlns="http://www.w3.org/2000/svg">
<g clip-path="url(#clip0_415_4)">
<rect y="576" width="1024" height="384" rx="56" fill="url(#paint0_linear_415_4)"/>
<rect y="576" width="1024" height="384" rx="56" fill="black" fill-opacity="0.28" style="mix-blend-mode:overlay"/>
<g filter="url(#filter0_d_415_4)">
<path d="M0 632C0 601.072 25.0721 576 56 576H968C998.928 576 1024 601.072 1024 632V839C1024 852.255 1013.25 863 1000 863H24C10.7452 863 0 852.255 0 839V632Z" fill="url(#paint1_linear_415_4)"/>
</g>
<g filter="url(#filter1_ddd_415_4)">
<path fill-rule="evenodd" clip-rule="evenodd" d="M132.199 677.155C132.19 677.599 132.588 678.442 132.766 680.792Z" fill="white"/>
<path fill-rule="evenodd" clip-rule="evenodd" d="M196.221 677.012C196.209 677.287 196.609 678.299 196.787 680.649Z" fill="white"/>
<path d="M142.153 759.378C147.652 759.378 152.11 754.814 152.11 749.184C151.92 749.184 151.736 748.015 151.564 745.847C150.831 736.619 150.3 721.29 150.3 711.907C150.3 708.705 150.395 704.294 150.56 699.549C151.645 700.597 152.742 701.66 153.834 702.722C160.267 708.977 166.519 715.182 169.157 717.883C175.609 724.49 189.749 739.729 195.65 746.825L195.725 746.916C195.938 747.172 196.134 747.411 196.312 747.634C196.25 748.094 196.218 748.564 196.218 749.041C196.218 754.671 200.676 759.235 206.175 759.235C211.674 759.235 216.131 754.671 216.131 749.041C215.941 749.041 215.758 747.872 215.585 745.704C214.852 736.476 214.321 721.147 214.321 711.764C214.321 704.273 214.841 690.158 215.562 680.649C215.74 678.299 216.135 677.287 216.129 677.012C216.008 671.49 211.598 667.05 206.175 667.05C200.751 667.05 196.341 671.49 196.221 677.012C196.209 677.287 196.609 678.299 196.787 680.649C197.508 690.158 198.028 704.273 198.028 711.764C198.028 714.962 197.967 718.851 197.856 722.955C196.734 721.884 195.597 720.792 194.463 719.699C189.126 714.552 183.87 709.357 180.677 706.088C175.687 700.979 158.445 682.625 151.794 674.829C151.551 673.869 151.176 672.963 150.688 672.135C148.946 669.174 145.776 667.193 142.153 667.193C136.73 667.193 132.32 671.632 132.199 677.155C132.19 677.599 132.588 678.442 132.766 680.792C133.487 690.301 134.007 704.416 134.007 711.907C134.007 721.29 133.476 736.619 132.743 745.847C132.57 748.015 132.387 749.184 132.197 749.184C132.197 754.814 136.654 759.378 142.153 759.378Z" fill="white"/>
<path d="M132.197 677.155L132.199 677.155M132.199 677.155C132.19 677.599 132.588 678.442 132.766 680.792C133.487 690.301 134.007 704.416 134.007 711.907C134.007 721.29 133.476 736.619 132.743 745.847C132.57 748.015 132.387 749.184 132.197 749.184C132.197 754.814 136.654 759.378 142.153 759.378C147.652 759.378 152.11 754.814 152.11 749.184C151.92 749.184 151.736 748.015 151.564 745.847C150.831 736.619 150.3 721.29 150.3 711.907C150.3 708.705 150.395 704.294 150.56 699.549C151.645 700.597 152.742 701.66 153.834 702.722C160.267 708.977 166.519 715.182 169.157 717.883C175.609 724.49 189.749 739.729 195.65 746.825M132.199 677.155C132.32 671.632 136.73 667.193 142.153 667.193C145.776 667.193 148.946 669.174 150.688 672.135C151.176 672.963 151.551 673.869 151.794 674.829C158.445 682.625 175.687 700.979 180.677 706.088C183.87 709.357 189.126 714.552 194.463 719.699C195.597 720.792 196.734 721.884 197.856 722.955C197.967 718.851 198.028 714.962 198.028 711.764C198.028 704.273 197.508 690.158 196.787 680.649C196.609 678.299 196.209 677.287 196.221 677.012M196.218 677.012L196.221 677.012M216.131 677.012L216.129 677.012M196.221 677.012C196.341 671.49 200.751 667.05 206.175 667.05C211.598 667.05 216.008 671.49 216.129 677.012M216.129 677.012C216.135 677.287 215.74 678.299 215.562 680.649C214.841 690.158 214.321 704.273 214.321 711.764C214.321 721.147 214.852 736.476 215.585 745.704C215.758 747.872 215.941 749.041 216.131 749.041C216.131 754.671 211.674 759.235 206.175 759.235C200.676 759.235 196.218 754.671 196.218 749.041C196.218 748.564 196.25 748.094 196.312 747.634C196.134 747.411 195.938 747.172 195.725 746.916M195.725 746.916C195.7 746.886 195.675 746.855 195.65 746.825M195.725 746.916L195.65 746.825" stroke="white" stroke-width="8"/>
</g>
<g filter="url(#filter2_d_415_4)">
<path d="M624 64H400.072C391.207 64 384.032 71.2071 384.072 80.0714L385.719 449.063L266.502 448.279C251.738 448.182 244.732 466.429 255.767 476.238L501.352 694.535C507.422 699.93 516.571 699.923 522.632 694.516L767.676 475.94C778.646 466.156 771.725 448 757.026 448H640V80C640 71.1634 632.837 64 624 64Z" fill="url(#paint2_linear_415_4)"/>
<path d="M624 64H400.072C391.207 64 384.032 71.2071 384.072 80.0714L385.719 449.063L266.502 448.279C251.738 448.182 244.732 466.429 255.767 476.238L501.352 694.535C507.422 699.93 516.571 699.923 522.632 694.516L767.676 475.94C778.646 466.156 771.725 448 757.026 448H640V80C640 71.1634 632.837 64 624 64Z" fill="#047BDC" style="mix-blend-mode:color"/>
<g opacity="0.46">
<path d="M624 64H400C391.163 64 384 71.1635 384 80V448H266.083C251.371 448 244.457 466.184 255.453 475.959L501.37 694.551C507.432 699.94 516.568 699.94 522.63 694.551L768.547 475.959C779.543 466.184 772.629 448 757.917 448H640V80C640 71.1634 632.837 64 624 64Z" fill="url(#paint3_linear_415_4)"/>
<path d="M624 64H400C391.163 64 384 71.1635 384 80V448H266.083C251.371 448 244.457 466.184 255.453 475.959L501.37 694.551C507.432 699.94 516.568 699.94 522.63 694.551L768.547 475.959C779.543 466.184 772.629 448 757.917 448H640V80C640 71.1634 632.837 64 624 64Z" fill="url(#paint4_linear_415_4)" fill-opacity="0.45"/>
<path d="M624 64H400C391.163 64 384 71.1635 384 80V448H266.083C251.371 448 244.457 466.184 255.453 475.959L501.37 694.551C507.432 699.94 516.568 699.94 522.63 694.551L768.547 475.959C779.543 466.184 772.629 448 757.917 448H640V80C640 71.1634 632.837 64 624 64Z" fill="url(#paint5_linear_415_4)" fill-opacity="0.3"/>
</g>
</g>
<rect x="448" y="704.283" width="576" height="255.717" rx="45" fill="#FFC225"/>
<path d="M578.701 893V771.395H615.496C624.626 771.395 632.656 772.605 639.586 775.025C646.516 777.335 651.961 781.185 655.921 786.575C659.991 791.855 662.026 799.115 662.026 808.355C662.026 817.155 660.046 824.415 656.086 830.135C652.126 835.745 646.681 839.98 639.751 842.84C632.931 845.59 625.066 846.965 616.156 846.965H597.841V893H578.701ZM597.841 831.455H614.506C624.076 831.455 631.226 829.585 635.956 825.845C640.686 822.105 643.051 816.275 643.051 808.355C643.051 800.215 640.576 794.605 635.626 791.525C630.676 788.445 623.361 786.905 613.681 786.905H597.841V831.455ZM698.893 893V771.395H738.658C747.018 771.395 754.498 772.55 761.098 774.86C767.698 777.06 772.923 780.745 776.773 785.915C780.623 790.975 782.548 797.905 782.548 806.705C782.548 815.175 780.623 822.16 776.773 827.66C772.923 833.16 767.698 837.285 761.098 840.035C754.498 842.675 747.018 843.995 738.658 843.995H718.033V893H698.893ZM718.033 828.65H736.348C745.148 828.65 751.858 826.835 756.478 823.205C761.208 819.465 763.573 813.965 763.573 806.705C763.573 799.335 761.208 794.22 756.478 791.36C751.858 788.39 745.148 786.905 736.348 786.905H718.033V828.65ZM765.223 893L735.028 838.88L749.218 827.825L786.838 893H765.223ZM820.374 893V771.395H892.149V787.565H839.514V821.39H884.064V837.56H839.514V876.665H893.964V893H820.374Z" fill="black"/>
<path d="M578.701 893H575.701V896H578.701V893ZM578.701 771.395V768.395H575.701V771.395H578.701ZM639.586 775.025L638.596 777.857L638.617 777.864L638.637 777.871L639.586 775.025ZM655.921 786.575L653.503 788.351L653.523 788.379L653.544 788.407L655.921 786.575ZM656.086 830.135L658.536 831.865L658.544 831.854L658.552 831.843L656.086 830.135ZM639.751 842.84L640.872 845.622L640.884 845.618L640.895 845.613L639.751 842.84ZM597.841 846.965V843.965H594.841V846.965H597.841ZM597.841 893V896H600.841V893H597.841ZM597.841 831.455H594.841V834.455H597.841V831.455ZM635.956 825.845L637.816 828.198L637.816 828.198L635.956 825.845ZM635.626 791.525L637.21 788.978L637.21 788.978L635.626 791.525ZM597.841 786.905V783.905H594.841V786.905H597.841ZM581.701 893V771.395H575.701V893H581.701ZM578.701 774.395H615.496V768.395H578.701V774.395ZM615.496 774.395C624.368 774.395 632.051 775.572 638.596 777.857L640.575 772.193C633.26 769.638 624.883 768.395 615.496 768.395V774.395ZM638.637 777.871C645.035 780.004 649.944 783.507 653.503 788.351L658.338 784.799C653.977 778.863 647.996 774.666 640.534 772.179L638.637 777.871ZM653.544 788.407C657.079 792.992 659.026 799.526 659.026 808.355H665.026C665.026 798.704 662.902 790.718 658.297 784.743L653.544 788.407ZM659.026 808.355C659.026 816.707 657.15 823.328 653.619 828.427L658.552 831.843C662.941 825.502 665.026 817.603 665.026 808.355H659.026ZM653.635 828.405C650.032 833.508 645.061 837.403 638.606 840.067L640.895 845.613C648.3 842.557 654.219 837.982 658.536 831.865L653.635 828.405ZM638.629 840.058C632.232 842.637 624.76 843.965 616.156 843.965V849.965C625.371 849.965 633.629 848.543 640.872 845.622L638.629 840.058ZM616.156 843.965H597.841V849.965H616.156V843.965ZM594.841 846.965V893H600.841V846.965H594.841ZM597.841 890H578.701V896H597.841V890ZM597.841 834.455H614.506V828.455H597.841V834.455ZM614.506 834.455C624.38 834.455 632.325 832.54 637.816 828.198L634.095 823.492C630.126 826.63 623.771 828.455 614.506 828.455V834.455ZM637.816 828.198C643.479 823.721 646.051 816.882 646.051 808.355H640.051C640.051 815.668 637.892 820.489 634.095 823.492L637.816 828.198ZM646.051 808.355C646.051 799.632 643.367 792.808 637.21 788.978L634.041 794.072C637.784 796.402 640.051 800.798 640.051 808.355H646.051ZM637.21 788.978C631.566 785.466 623.59 783.905 613.681 783.905V789.905C623.131 789.905 629.785 791.424 634.041 794.072L637.21 788.978ZM613.681 783.905H597.841V789.905H613.681V783.905ZM594.841 786.905V831.455H600.841V786.905H594.841ZM698.893 893H695.893V896H698.893V893ZM698.893 771.395V768.395H695.893V771.395H698.893ZM761.098 774.86L760.107 777.692L760.128 777.699L760.149 777.706L761.098 774.86ZM776.773 785.915L774.367 787.707L774.376 787.719L774.385 787.732L776.773 785.915ZM776.773 827.66L774.315 825.94L774.315 825.94L776.773 827.66ZM761.098 840.035L762.212 842.82L762.232 842.812L762.252 842.804L761.098 840.035ZM718.033 843.995V840.995H715.033V843.995H718.033ZM718.033 893V896H721.033V893H718.033ZM718.033 828.65H715.033V831.65H718.033V828.65ZM756.478 823.205L758.331 825.564L758.338 825.558L756.478 823.205ZM756.478 791.36L754.855 793.884L754.89 793.906L754.925 793.927L756.478 791.36ZM718.033 786.905V783.905H715.033V786.905H718.033ZM765.223 893L762.603 894.462L763.461 896H765.223V893ZM735.028 838.88L733.184 836.513L731.154 838.095L732.408 840.342L735.028 838.88ZM749.218 827.825L751.816 826.325L750.093 823.34L747.374 825.458L749.218 827.825ZM786.838 893V896H792.033L789.436 891.5L786.838 893ZM701.893 893V771.395H695.893V893H701.893ZM698.893 774.395H738.658V768.395H698.893V774.395ZM738.658 774.395C746.744 774.395 753.881 775.512 760.107 777.692L762.089 772.028C755.115 769.588 747.291 768.395 738.658 768.395V774.395ZM760.149 777.706C766.215 779.728 770.913 783.069 774.367 787.707L779.179 784.123C774.933 778.421 769.18 774.392 762.046 772.014L760.149 777.706ZM774.385 787.732C777.71 792.102 779.548 798.314 779.548 806.705H785.548C785.548 797.496 783.535 789.848 779.16 784.098L774.385 787.732ZM779.548 806.705C779.548 814.721 777.729 821.062 774.315 825.94L779.23 829.38C783.516 823.258 785.548 815.629 785.548 806.705H779.548ZM774.315 825.94C770.813 830.943 766.054 834.72 759.944 837.266L762.252 842.804C769.341 839.85 775.033 835.377 779.23 829.38L774.315 825.94ZM759.984 837.25C753.794 839.725 746.702 840.995 738.658 840.995V846.995C747.333 846.995 755.201 845.625 762.212 842.82L759.984 837.25ZM738.658 840.995H718.033V846.995H738.658V840.995ZM715.033 843.995V893H721.033V843.995H715.033ZM718.033 890H698.893V896H718.033V890ZM718.033 831.65H736.348V825.65H718.033V831.65ZM736.348 831.65C745.5 831.65 752.977 829.771 758.331 825.564L754.624 820.846C750.739 823.899 744.795 825.65 736.348 825.65V831.65ZM758.338 825.558C763.937 821.132 766.573 814.674 766.573 806.705H760.573C760.573 813.256 758.479 817.798 754.617 820.852L758.338 825.558ZM766.573 806.705C766.573 798.68 763.952 792.373 758.03 788.793L754.925 793.927C758.464 796.067 760.573 799.99 760.573 806.705H766.573ZM758.1 788.836C752.786 785.42 745.408 783.905 736.348 783.905V789.905C744.888 789.905 750.93 791.36 754.855 793.884L758.1 788.836ZM736.348 783.905H718.033V789.905H736.348V783.905ZM715.033 786.905V828.65H721.033V786.905H715.033ZM767.843 891.538L737.648 837.418L732.408 840.342L762.603 894.462L767.843 891.538ZM736.871 841.247L751.061 830.192L747.374 825.458L733.184 836.513L736.871 841.247ZM746.619 829.325L784.239 894.5L789.436 891.5L751.816 826.325L746.619 829.325ZM786.838 890H765.223V896H786.838V890ZM820.374 893H817.374V896H820.374V893ZM820.374 771.395V768.395H817.374V771.395H820.374ZM892.149 771.395H895.149V768.395H892.149V771.395ZM892.149 787.565V790.565H895.149V787.565H892.149ZM839.514 787.565V784.565H836.514V787.565H839.514ZM839.514 821.39H836.514V824.39H839.514V821.39ZM884.064 821.39H887.064V818.39H884.064V821.39ZM884.064 837.56V840.56H887.064V837.56H884.064ZM839.514 837.56V834.56H836.514V837.56H839.514ZM839.514 876.665H836.514V879.665H839.514V876.665ZM893.964 876.665H896.964V873.665H893.964V876.665ZM893.964 893V896H896.964V893H893.964ZM823.374 893V771.395H817.374V893H823.374ZM820.374 774.395H892.149V768.395H820.374V774.395ZM889.149 771.395V787.565H895.149V771.395H889.149ZM892.149 784.565H839.514V790.565H892.149V784.565ZM836.514 787.565V821.39H842.514V787.565H836.514ZM839.514 824.39H884.064V818.39H839.514V824.39ZM881.064 821.39V837.56H887.064V821.39H881.064ZM884.064 834.56H839.514V840.56H884.064V834.56ZM836.514 837.56V876.665H842.514V837.56H836.514ZM839.514 879.665H893.964V873.665H839.514V879.665ZM890.964 876.665V893H896.964V876.665H890.964ZM893.964 890H820.374V896H893.964V890Z" fill="black"/>
</g>
<defs>
<filter id="filter0_d_415_4" x="-24" y="576" width="1072" height="347" filterUnits="userSpaceOnUse" color-interpolation-filters="sRGB">
<feFlood flood-opacity="0" result="BackgroundImageFix"/>
<feColorMatrix in="SourceAlpha" type="matrix" values="0 0 0 0 0 0 0 0 0 0 0 0 0 0 0 0 0 0 127 0" result="hardAlpha"/>
<feOffset dy="36"/>
<feGaussianBlur stdDeviation="12"/>
<feComposite in2="hardAlpha" operator="out"/>
<feColorMatrix type="matrix" values="0 0 0 0 0 0 0 0 0 0 0 0 0 0 0 0 0 0 0.18 0"/>
<feBlend mode="normal" in2="BackgroundImageFix" result="effect1_dropShadow_415_4"/>
<feBlend mode="normal" in="SourceGraphic" in2="effect1_dropShadow_415_4" result="shape"/>
</filter>
<filter id="filter1_ddd_415_4" x="92.1968" y="655.05" width="163.935" height="180.328" filterUnits="userSpaceOnUse" color-interpolation-filters="sRGB">
<feFlood flood-opacity="0" result="BackgroundImageFix"/>
<feColorMatrix in="SourceAlpha" type="matrix" values="0 0 0 0 0 0 0 0 0 0 0 0 0 0 0 0 0 0 127 0" result="hardAlpha"/>
<feOffset dy="12"/>
<feGaussianBlur stdDeviation="10"/>
<feComposite in2="hardAlpha" operator="out"/>
<feColorMatrix type="matrix" values="0 0 0 0 1 0 0 0 0 1 0 0 0 0 1 0 0 0 0.3 0"/>
<feBlend mode="normal" in2="BackgroundImageFix" result="effect1_dropShadow_415_4"/>
<feColorMatrix in="SourceAlpha" type="matrix" values="0 0 0 0 0 0 0 0 0 0 0 0 0 0 0 0 0 0 127 0" result="hardAlpha"/>
<feOffset dy="12"/>
<feGaussianBlur stdDeviation="10"/>
<feComposite in2="hardAlpha" operator="out"/>
<feColorMatrix type="matrix" values="0 0 0 0 1 0 0 0 0 1 0 0 0 0 1 0 0 0 0.1 0"/>
<feBlend mode="normal" in2="effect1_dropShadow_415_4" result="effect2_dropShadow_415_4"/>
<feColorMatrix in="SourceAlpha" type="matrix" values="0 0 0 0 0 0 0 0 0 0 0 0 0 0 0 0 0 0 127 0" result="hardAlpha"/>
<feOffset dy="36"/>
<feGaussianBlur stdDeviation="18"/>
<feComposite in2="hardAlpha" operator="out"/>
<feColorMatrix type="matrix" values="0 0 0 0 1 0 0 0 0 1 0 0 0 0 1 0 0 0 0.25 0"/>
<feBlend mode="normal" in2="effect2_dropShadow_415_4" result="effect3_dropShadow_415_4"/>
<feBlend mode="normal" in="SourceGraphic" in2="effect3_dropShadow_415_4" result="shape"/>
</filter>
<filter id="filter2_d_415_4" x="126.051" y="-8" width="771.897" height="882.593" filterUnits="userSpaceOnUse" color-interpolation-filters="sRGB">
<feFlood flood-opacity="0" result="BackgroundImageFix"/>
<feColorMatrix in="SourceAlpha" type="matrix" values="0 0 0 0 0 0 0 0 0 0 0 0 0 0 0 0 0 0 127 0" result="hardAlpha"/>
<feOffset dy="52"/>
<feGaussianBlur stdDeviation="62"/>
<feComposite in2="hardAlpha" operator="out"/>
<feColorMatrix type="matrix" values="0 0 0 0 0 0 0 0 0 0 0 0 0 0 0 0 0 0 0.41 0"/>
<feBlend mode="normal" in2="BackgroundImageFix" result="effect1_dropShadow_415_4"/>
<feBlend mode="normal" in="SourceGraphic" in2="effect1_dropShadow_415_4" result="shape"/>
</filter>
<linearGradient id="paint0_linear_415_4" x1="35.6721" y1="576" x2="1180.76" y2="754.397" gradientUnits="userSpaceOnUse">
<stop stop-color="#8A9198"/>
<stop offset="1" stop-color="#55626D"/>
</linearGradient>
<linearGradient id="paint1_linear_415_4" x1="35.6722" y1="576" x2="1127.14" y2="931.545" gradientUnits="userSpaceOnUse">
<stop stop-color="#8A9198"/>
<stop offset="1" stop-color="#55626D"/>
</linearGradient>
<linearGradient id="paint2_linear_415_4" x1="327.428" y1="21.5447" x2="595.022" y2="733.875" gradientUnits="userSpaceOnUse">
<stop stop-color="#50E5FD"/>
<stop offset="1" stop-color="#19A6EC"/>
</linearGradient>
<linearGradient id="paint3_linear_415_4" x1="512" y1="64" x2="512" y2="704" gradientUnits="userSpaceOnUse">
<stop stop-color="#0079D5"/>
<stop offset="1" stop-color="#0367CC"/>
</linearGradient>
<linearGradient id="paint4_linear_415_4" x1="512" y1="64" x2="512" y2="704" gradientUnits="userSpaceOnUse">
<stop stop-color="#0085FF"/>
<stop offset="1" stop-color="#0085FF" stop-opacity="0"/>
</linearGradient>
<linearGradient id="paint5_linear_415_4" x1="512" y1="64" x2="512" y2="704" gradientUnits="userSpaceOnUse">
<stop stop-color="#00C2FF"/>
<stop offset="1" stop-color="#00D1FF" stop-opacity="0"/>
</linearGradient>
<clipPath id="clip0_415_4">
<rect width="1024" height="1024" fill="white"/>
</clipPath>
</defs>
</svg>
