<svg width="1024" height="1024" viewBox="0 0 1024 1024" fill="none" xmlns="http://www.w3.org/2000/svg">
<g clip-path="url(#clip0_421_68)">
<path fill-rule="evenodd" clip-rule="evenodd" d="M624 64H400C391.163 64 384 71.1635 384 80V448H266.083C251.371 448 244.457 466.184 255.453 475.959L318.5 532L368 576L463.639 661.013C472.869 657.945 482.74 656.283 493 656.283H565.681L656 576L705.5 532L768.547 475.959C779.543 466.184 772.629 448 757.917 448H640V80C640 71.1634 632.837 64 624 64ZM493 704.283C480.511 704.283 469.21 709.371 461.057 717.587C452.986 725.721 448 736.92 448 749.283V863V907V915C448 939.853 468.147 960 493 960H968H979C1003.85 960 1024 939.853 1024 915V904V902.644C1049.71 892.943 1068 868.107 1068 839V722.217C1060.92 698.906 1044.93 679.471 1024 667.876V632C1024 601.072 998.928 576 968 576H722.229L631.91 656.283H979C995.324 656.283 1010.67 660.489 1024 667.876V749.283C1024 724.43 1003.85 704.283 979 704.283H577.91H493ZM301.771 576L425.155 685.674C409.554 702.307 400 724.679 400 749.283V863H24C10.7452 863 0 852.255 0 839V632C0 601.072 25.0721 576 56 576H301.771ZM400 915C400 931.324 404.206 946.665 411.593 960H56C25.0721 960 0 934.928 0 904V902.644C7.46306 905.459 15.5516 907 24 907H400V915ZM192.218 749.041L192.218 748.957C186.215 741.805 172.587 727.12 166.295 720.678C164.141 718.472 159.503 713.857 154.324 708.788C154.308 709.922 154.3 710.969 154.3 711.907C154.3 721.085 154.815 736.042 155.524 745.184L156.11 749.184C156.11 756.934 149.95 763.378 142.153 763.378C134.357 763.378 128.197 756.934 128.197 749.184L128.782 745.184C129.492 736.042 130.007 721.085 130.007 711.907C130.007 704.522 129.491 690.509 128.777 681.094C128.704 680.124 128.589 679.507 128.502 679.1C128.478 678.991 128.455 678.889 128.43 678.782L128.42 678.74C128.399 678.649 128.373 678.535 128.35 678.43L128.346 678.411C128.305 678.223 128.187 677.683 128.2 677.068C128.366 669.462 134.465 663.193 142.153 663.193C147.281 663.193 151.721 666.002 154.136 670.107C154.646 670.974 155.068 671.902 155.389 672.876C162.318 680.903 178.706 698.346 183.539 703.293C186.052 705.866 189.879 709.667 194.021 713.701C194.026 713.031 194.028 712.384 194.028 711.764C194.028 704.379 193.512 690.366 192.799 680.951C192.724 679.968 192.606 679.299 192.516 678.866C192.498 678.778 192.482 678.703 192.466 678.632C192.451 678.565 192.436 678.502 192.421 678.436L192.421 678.434L192.387 678.29L192.379 678.252C192.358 678.161 192.323 678.004 192.294 677.836L192.293 677.834C192.273 677.72 192.211 677.359 192.222 676.912C192.394 669.312 198.49 663.05 206.175 663.05C213.863 663.05 219.962 669.319 220.128 676.925C220.138 677.375 220.071 677.744 220.05 677.859L220.05 677.861C220.021 678.019 219.987 678.17 219.967 678.257L219.932 678.408C219.899 678.553 219.868 678.684 219.832 678.862C219.742 679.294 219.626 679.965 219.551 680.951C218.837 690.366 218.321 704.379 218.321 711.764C218.321 720.942 218.836 735.899 219.546 745.041L220.131 749.041C220.131 756.791 213.971 763.235 206.175 763.235C198.378 763.235 192.218 756.791 192.218 749.041ZM723.47 863V849.8H735.603L742.743 863L760.592 896H794.936L776.102 863L765.554 844.519C771.809 841.578 776.923 837.363 780.829 831.874L780.837 831.863L780.845 831.852C785.35 825.398 787.49 817.329 787.49 807.86C787.49 798.109 785.371 790.03 780.787 783.953C776.322 777.925 770.29 773.725 762.813 771.347C755.53 768.922 747.399 767.735 738.455 767.735H693.05V863V896H723.47V863ZM723.47 824.495H736.31C743.878 824.495 749.083 822.909 752.405 820.215L752.42 820.202L752.436 820.19C755.737 817.584 757.565 813.654 757.565 807.86C757.565 801.896 755.719 798.534 752.741 796.732L752.701 796.707L752.662 796.682C749.297 794.499 743.982 793.205 736.31 793.205H723.47V824.495ZM849.14 842.87V863V869.54H901.445V896H818.72V863V767.735H899.63V794.195H849.14V816.41H891.875V842.87H849.14ZM569.796 863V767.735H612.891C622.174 767.735 630.589 768.98 638.101 771.521C645.872 774.113 652.114 778.459 656.692 784.591C661.512 790.786 663.741 799.101 663.741 809.18C663.741 818.885 661.484 827.176 656.757 833.845C652.224 840.285 646.083 845.036 638.433 848.097C630.984 851.122 622.675 852.605 613.551 852.605H600.216V863V896H569.796V863ZM628.598 822.738L628.614 822.725C631.932 819.931 633.816 815.609 633.816 809.18C633.816 802.763 631.849 799.053 628.626 797.039L628.589 797.016L628.552 796.991C624.979 794.609 619.298 793.205 611.076 793.205H600.216V827.3H611.901C619.921 827.3 625.29 825.599 628.583 822.751L628.598 822.738Z" fill="black"/>
</g>
<defs>
<clipPath id="clip0_421_68">
<rect width="1024" height="1024" fill="white"/>
</clipPath>
</defs>
</svg>
