<svg width="1024" height="1024" viewBox="0 0 1024 1024" fill="none" xmlns="http://www.w3.org/2000/svg">
<path fill-rule="evenodd" clip-rule="evenodd" d="M1024 839.367V619.367C1024 588.439 998.928 563.367 968 563.367H698.658L527.837 698.099C506.047 715.286 475.313 715.286 453.523 698.099L282.702 563.367H56C25.0721 563.367 0 588.439 0 619.367V839.367C0 852.622 10.7452 863.367 24 863.367H1000C1013.25 863.367 1024 852.622 1024 839.367ZM192.218 749.041L192.218 748.957C186.215 741.805 172.587 727.12 166.295 720.678C164.141 718.472 159.503 713.857 154.324 708.788C154.308 709.922 154.3 710.969 154.3 711.907C154.3 721.085 154.815 736.042 155.524 745.184H156.11V749.184C156.11 756.934 149.95 763.378 142.153 763.378C134.357 763.378 128.197 756.934 128.197 749.184V745.184H128.782C129.492 736.042 130.007 721.085 130.007 711.907C130.007 704.522 129.491 690.509 128.777 681.094C128.704 680.124 128.589 679.507 128.502 679.1L128.488 679.039L128.475 678.978C128.46 678.913 128.445 678.849 128.43 678.782L128.42 678.74C128.399 678.649 128.373 678.535 128.35 678.43L128.346 678.411C128.305 678.223 128.187 677.683 128.2 677.068C128.366 669.462 134.465 663.193 142.153 663.193C147.281 663.193 151.721 666.002 154.136 670.107C154.646 670.974 155.068 671.902 155.389 672.876C162.318 680.903 178.706 698.346 183.539 703.293C186.052 705.866 189.879 709.667 194.021 713.701C194.026 713.031 194.028 712.384 194.028 711.764C194.028 704.379 193.512 690.366 192.799 680.951C192.724 679.968 192.606 679.299 192.516 678.866C192.512 678.844 192.507 678.823 192.503 678.802C192.499 678.782 192.494 678.762 192.49 678.743C192.484 678.716 192.479 678.689 192.473 678.664C192.468 678.64 192.462 678.617 192.457 678.594C192.451 678.565 192.444 678.535 192.437 678.506C192.432 678.483 192.426 678.459 192.421 678.436L192.421 678.434C192.412 678.397 192.403 678.359 192.394 678.319C192.389 678.297 192.384 678.275 192.379 678.252C192.372 678.224 192.365 678.191 192.357 678.154C192.337 678.066 192.314 677.954 192.294 677.836L192.293 677.834C192.273 677.72 192.211 677.359 192.222 676.912C192.394 669.312 198.49 663.05 206.175 663.05C213.863 663.05 219.962 669.319 220.128 676.925C220.138 677.375 220.071 677.744 220.05 677.859L220.05 677.861C220.021 678.019 219.987 678.17 219.967 678.257L219.932 678.408C219.926 678.434 219.92 678.46 219.914 678.486C219.909 678.511 219.903 678.535 219.898 678.559C219.877 678.652 219.855 678.747 219.832 678.862C219.742 679.294 219.626 679.965 219.551 680.951C218.837 690.366 218.321 704.379 218.321 711.764C218.321 720.942 218.836 735.899 219.546 745.041H220.131V749.041C220.131 756.791 213.971 763.235 206.175 763.235C198.378 763.235 192.218 756.791 192.218 749.041Z" fill="black"/>
<path fill-rule="evenodd" clip-rule="evenodd" d="M0 919V903.011C7.46311 905.827 15.5515 907.367 24 907.367H1000C1008.45 907.367 1016.54 905.827 1024 903.011V919C1024 949.928 998.928 975 968 975H56C25.0721 975 0 949.928 0 919Z" fill="black"/>
<path d="M331.986 59.3672H643.245C652.081 59.3672 659.245 66.5306 659.245 75.3672V447.367H728.558C743.738 447.367 750.385 466.529 738.467 475.93L683.394 519.367L628.074 563L627.608 563.367L500.589 663.552C494.778 668.135 486.582 668.135 480.771 663.552L353.752 563.367L353.286 563L297.966 519.367L242.893 475.93C230.975 466.529 237.622 447.367 252.802 447.367H315.986V75.3672C315.986 66.5306 323.149 59.3672 331.986 59.3672Z" fill="black"/>
</svg>
