<svg width="1024" height="1024" viewBox="0 0 1024 1024" fill="none" xmlns="http://www.w3.org/2000/svg">
<g clip-path="url(#clip0_328_15)">
<rect y="563" width="1024" height="412" rx="56" fill="url(#paint0_linear_328_15)"/>
<rect y="563" width="1024" height="412" rx="56" fill="black" fill-opacity="0.28" style="mix-blend-mode:overlay"/>
<g filter="url(#filter0_d_328_15)">
<path d="M0 619.367C0 588.439 25.0721 563.367 56 563.367H968C998.928 563.367 1024 588.439 1024 619.367V839.367C1024 852.622 1013.25 863.367 1000 863.367H24C10.7452 863.367 0 852.622 0 839.367V619.367Z" fill="url(#paint1_linear_328_15)"/>
</g>
<g filter="url(#filter1_ddd_328_15)">
<path fill-rule="evenodd" clip-rule="evenodd" d="M132.199 677.155C132.19 677.599 132.588 678.442 132.766 680.792Z" fill="white"/>
<path fill-rule="evenodd" clip-rule="evenodd" d="M196.221 677.012C196.209 677.287 196.609 678.299 196.787 680.649Z" fill="white"/>
<path d="M142.153 759.378C147.652 759.378 152.11 754.814 152.11 749.184C151.92 749.184 151.736 748.015 151.564 745.847C150.831 736.619 150.3 721.29 150.3 711.907C150.3 708.705 150.395 704.294 150.56 699.549C151.645 700.597 152.742 701.66 153.834 702.722C160.267 708.977 166.519 715.182 169.157 717.883C175.609 724.49 189.749 739.729 195.65 746.825L195.725 746.916C195.938 747.172 196.134 747.411 196.312 747.634C196.25 748.094 196.218 748.564 196.218 749.041C196.218 754.671 200.676 759.235 206.175 759.235C211.674 759.235 216.131 754.671 216.131 749.041C215.941 749.041 215.758 747.872 215.585 745.704C214.852 736.476 214.321 721.147 214.321 711.764C214.321 704.273 214.841 690.158 215.562 680.649C215.74 678.299 216.135 677.287 216.129 677.012C216.008 671.49 211.598 667.05 206.175 667.05C200.751 667.05 196.341 671.49 196.221 677.012C196.209 677.287 196.609 678.299 196.787 680.649C197.508 690.158 198.028 704.273 198.028 711.764C198.028 714.962 197.967 718.851 197.856 722.955C196.734 721.884 195.597 720.792 194.463 719.699C189.126 714.552 183.87 709.357 180.677 706.088C175.687 700.979 158.445 682.625 151.794 674.829C151.551 673.869 151.176 672.963 150.688 672.135C148.946 669.174 145.776 667.193 142.153 667.193C136.73 667.193 132.32 671.632 132.199 677.155C132.19 677.599 132.588 678.442 132.766 680.792C133.487 690.301 134.007 704.416 134.007 711.907C134.007 721.29 133.476 736.619 132.743 745.847C132.57 748.015 132.387 749.184 132.197 749.184C132.197 754.814 136.654 759.378 142.153 759.378Z" fill="white"/>
<path d="M132.197 677.155L132.199 677.155M132.199 677.155C132.19 677.599 132.588 678.442 132.766 680.792C133.487 690.301 134.007 704.416 134.007 711.907C134.007 721.29 133.476 736.619 132.743 745.847C132.57 748.015 132.387 749.184 132.197 749.184C132.197 754.814 136.654 759.378 142.153 759.378C147.652 759.378 152.11 754.814 152.11 749.184C151.92 749.184 151.736 748.015 151.564 745.847C150.831 736.619 150.3 721.29 150.3 711.907C150.3 708.705 150.395 704.294 150.56 699.549C151.645 700.597 152.742 701.66 153.834 702.722C160.267 708.977 166.519 715.182 169.157 717.883C175.609 724.49 189.749 739.729 195.65 746.825M132.199 677.155C132.32 671.632 136.73 667.193 142.153 667.193C145.776 667.193 148.946 669.174 150.688 672.135C151.176 672.963 151.551 673.869 151.794 674.829C158.445 682.625 175.687 700.979 180.677 706.088C183.87 709.357 189.126 714.552 194.463 719.699C195.597 720.792 196.734 721.884 197.856 722.955C197.967 718.851 198.028 714.962 198.028 711.764C198.028 704.273 197.508 690.158 196.787 680.649C196.609 678.299 196.209 677.287 196.221 677.012M196.218 677.012L196.221 677.012M216.131 677.012L216.129 677.012M196.221 677.012C196.341 671.49 200.751 667.05 206.175 667.05C211.598 667.05 216.008 671.49 216.129 677.012M216.129 677.012C216.135 677.287 215.74 678.299 215.562 680.649C214.841 690.158 214.321 704.273 214.321 711.764C214.321 721.147 214.852 736.476 215.585 745.704C215.758 747.872 215.941 749.041 216.131 749.041C216.131 754.671 211.674 759.235 206.175 759.235C200.676 759.235 196.218 754.671 196.218 749.041C196.218 748.564 196.25 748.094 196.312 747.634C196.134 747.411 195.938 747.172 195.725 746.916M195.725 746.916C195.7 746.886 195.675 746.855 195.65 746.825M195.725 746.916L195.65 746.825" stroke="white" stroke-width="8"/>
</g>
<g filter="url(#filter2_d_328_15)">
<path d="M643.245 59.3672H331.986C323.149 59.3672 315.986 66.5306 315.986 75.3672V447.367H252.802C237.622 447.367 230.974 466.529 242.893 475.93L480.771 663.552C486.582 668.135 494.778 668.135 500.588 663.552L738.466 475.93C750.385 466.529 743.738 447.367 728.558 447.367H659.245V75.3672C659.245 66.5306 652.081 59.3672 643.245 59.3672Z" fill="url(#paint2_linear_328_15)"/>
<path d="M643.245 59.3672H331.986C323.149 59.3672 315.986 66.5306 315.986 75.3672V447.367H252.802C237.622 447.367 230.974 466.529 242.893 475.93L480.771 663.552C486.582 668.135 494.778 668.135 500.588 663.552L738.466 475.93C750.385 466.529 743.738 447.367 728.558 447.367H659.245V75.3672C659.245 66.5306 652.081 59.3672 643.245 59.3672Z" fill="#047BDC" style="mix-blend-mode:color"/>
<g opacity="0.46">
<path d="M643.245 59.3672H331.986C323.149 59.3672 315.986 66.5306 315.986 75.3672V447.367H252.802C237.622 447.367 230.974 466.529 242.893 475.93L480.771 663.552C486.582 668.135 494.778 668.135 500.588 663.552L738.466 475.93C750.385 466.529 743.738 447.367 728.558 447.367H659.245V75.3672C659.245 66.5306 652.081 59.3672 643.245 59.3672Z" fill="url(#paint3_linear_328_15)"/>
<path d="M643.245 59.3672H331.986C323.149 59.3672 315.986 66.5306 315.986 75.3672V447.367H252.802C237.622 447.367 230.974 466.529 242.893 475.93L480.771 663.552C486.582 668.135 494.778 668.135 500.588 663.552L738.466 475.93C750.385 466.529 743.738 447.367 728.558 447.367H659.245V75.3672C659.245 66.5306 652.081 59.3672 643.245 59.3672Z" fill="url(#paint4_linear_328_15)" fill-opacity="0.45"/>
<path d="M643.245 59.3672H331.986C323.149 59.3672 315.986 66.5306 315.986 75.3672V447.367H252.802C237.622 447.367 230.974 466.529 242.893 475.93L480.771 663.552C486.582 668.135 494.778 668.135 500.588 663.552L738.466 475.93C750.385 466.529 743.738 447.367 728.558 447.367H659.245V75.3672C659.245 66.5306 652.081 59.3672 643.245 59.3672Z" fill="url(#paint5_linear_328_15)" fill-opacity="0.3"/>
</g>
</g>
</g>
<defs>
<filter id="filter0_d_328_15" x="-24" y="563.367" width="1072" height="360" filterUnits="userSpaceOnUse" color-interpolation-filters="sRGB">
<feFlood flood-opacity="0" result="BackgroundImageFix"/>
<feColorMatrix in="SourceAlpha" type="matrix" values="0 0 0 0 0 0 0 0 0 0 0 0 0 0 0 0 0 0 127 0" result="hardAlpha"/>
<feOffset dy="36"/>
<feGaussianBlur stdDeviation="12"/>
<feComposite in2="hardAlpha" operator="out"/>
<feColorMatrix type="matrix" values="0 0 0 0 0 0 0 0 0 0 0 0 0 0 0 0 0 0 0.18 0"/>
<feBlend mode="normal" in2="BackgroundImageFix" result="effect1_dropShadow_328_15"/>
<feBlend mode="normal" in="SourceGraphic" in2="effect1_dropShadow_328_15" result="shape"/>
</filter>
<filter id="filter1_ddd_328_15" x="92.1968" y="655.05" width="163.934" height="180.328" filterUnits="userSpaceOnUse" color-interpolation-filters="sRGB">
<feFlood flood-opacity="0" result="BackgroundImageFix"/>
<feColorMatrix in="SourceAlpha" type="matrix" values="0 0 0 0 0 0 0 0 0 0 0 0 0 0 0 0 0 0 127 0" result="hardAlpha"/>
<feOffset dy="12"/>
<feGaussianBlur stdDeviation="10"/>
<feComposite in2="hardAlpha" operator="out"/>
<feColorMatrix type="matrix" values="0 0 0 0 1 0 0 0 0 1 0 0 0 0 1 0 0 0 0.3 0"/>
<feBlend mode="normal" in2="BackgroundImageFix" result="effect1_dropShadow_328_15"/>
<feColorMatrix in="SourceAlpha" type="matrix" values="0 0 0 0 0 0 0 0 0 0 0 0 0 0 0 0 0 0 127 0" result="hardAlpha"/>
<feOffset dy="12"/>
<feGaussianBlur stdDeviation="10"/>
<feComposite in2="hardAlpha" operator="out"/>
<feColorMatrix type="matrix" values="0 0 0 0 1 0 0 0 0 1 0 0 0 0 1 0 0 0 0.1 0"/>
<feBlend mode="normal" in2="effect1_dropShadow_328_15" result="effect2_dropShadow_328_15"/>
<feColorMatrix in="SourceAlpha" type="matrix" values="0 0 0 0 0 0 0 0 0 0 0 0 0 0 0 0 0 0 127 0" result="hardAlpha"/>
<feOffset dy="36"/>
<feGaussianBlur stdDeviation="18"/>
<feComposite in2="hardAlpha" operator="out"/>
<feColorMatrix type="matrix" values="0 0 0 0 1 0 0 0 0 1 0 0 0 0 1 0 0 0 0.25 0"/>
<feBlend mode="normal" in2="effect2_dropShadow_328_15" result="effect3_dropShadow_328_15"/>
<feBlend mode="normal" in="SourceGraphic" in2="effect3_dropShadow_328_15" result="shape"/>
</filter>
<filter id="filter2_d_328_15" x="112.77" y="-12.6328" width="755.819" height="855.622" filterUnits="userSpaceOnUse" color-interpolation-filters="sRGB">
<feFlood flood-opacity="0" result="BackgroundImageFix"/>
<feColorMatrix in="SourceAlpha" type="matrix" values="0 0 0 0 0 0 0 0 0 0 0 0 0 0 0 0 0 0 127 0" result="hardAlpha"/>
<feOffset dy="52"/>
<feGaussianBlur stdDeviation="62"/>
<feComposite in2="hardAlpha" operator="out"/>
<feColorMatrix type="matrix" values="0 0 0 0 0 0 0 0 0 0 0 0 0 0 0 0 0 0 0.41 0"/>
<feBlend mode="normal" in2="BackgroundImageFix" result="effect1_dropShadow_328_15"/>
<feBlend mode="normal" in="SourceGraphic" in2="effect1_dropShadow_328_15" result="shape"/>
</filter>
<linearGradient id="paint0_linear_328_15" x1="35.6721" y1="563" x2="1184.34" y2="729.792" gradientUnits="userSpaceOnUse">
<stop stop-color="#8A9198"/>
<stop offset="1" stop-color="#55626D"/>
</linearGradient>
<linearGradient id="paint1_linear_328_15" x1="35.6722" y1="563.367" x2="1136.09" y2="906.295" gradientUnits="userSpaceOnUse">
<stop stop-color="#8A9198"/>
<stop offset="1" stop-color="#55626D"/>
</linearGradient>
<linearGradient id="paint2_linear_328_15" x1="255.717" y1="16.588" x2="520.136" y2="738.839" gradientUnits="userSpaceOnUse">
<stop stop-color="#50E5FD"/>
<stop offset="1" stop-color="#19A6EC"/>
</linearGradient>
<linearGradient id="paint3_linear_328_15" x1="490.68" y1="59.3672" x2="490.68" y2="671.367" gradientUnits="userSpaceOnUse">
<stop stop-color="#0079D5"/>
<stop offset="1" stop-color="#0367CC"/>
</linearGradient>
<linearGradient id="paint4_linear_328_15" x1="490.68" y1="59.3672" x2="490.68" y2="671.367" gradientUnits="userSpaceOnUse">
<stop stop-color="#0085FF"/>
<stop offset="1" stop-color="#0085FF" stop-opacity="0"/>
</linearGradient>
<linearGradient id="paint5_linear_328_15" x1="490.68" y1="59.3672" x2="490.68" y2="671.367" gradientUnits="userSpaceOnUse">
<stop stop-color="#00C2FF"/>
<stop offset="1" stop-color="#00D1FF" stop-opacity="0"/>
</linearGradient>
<clipPath id="clip0_328_15">
<rect width="1024" height="1024" fill="white"/>
</clipPath>
</defs>
</svg>
