<svg width="1024" height="1024" viewBox="0 0 1024 1024" fill="none" xmlns="http://www.w3.org/2000/svg">
<g clip-path="url(#clip0_325_149)">
<path d="M331.986 59H643.245C652.081 59 659.245 66.1634 659.245 75V447H728.558C743.738 447 750.385 466.162 738.467 475.563L500.589 663.185C494.778 667.768 486.582 667.768 480.771 663.185L242.893 475.563C230.975 466.162 237.622 447 252.802 447H315.986V75C315.986 66.1634 323.149 59 331.986 59Z" fill="black"/>
<path fill-rule="evenodd" clip-rule="evenodd" d="M482 783.633H986C1006.99 783.633 1024 800.646 1024 821.633V985.633C1024 1006.62 1006.99 1023.63 986 1023.63H482C461.013 1023.63 444 1006.62 444 985.633V974.633V907V863V821.633C444 800.646 461.013 783.633 482 783.633ZM577.491 838.129V863V907V974.633V979.633H599.763V974.633V926.065H621.076C621.392 926.065 621.708 926.063 622.022 926.06C622.351 926.057 622.679 926.052 623.005 926.046C632.583 925.859 641.091 924.265 648.531 921.265C648.753 921.174 648.972 921.081 649.191 920.987C656.729 917.757 662.721 913.094 667.167 907C667.292 906.828 667.416 906.655 667.539 906.481C669.843 903.153 671.571 899.377 672.724 895.153C673.876 890.929 674.452 886.257 674.452 881.137C674.452 874.106 673.439 868.061 671.414 863C670.342 860.322 668.987 857.919 667.347 855.793C663.891 851.089 659.463 847.393 654.063 844.705C652.841 844.096 651.57 843.54 650.248 843.035C650.231 843.028 650.215 843.022 650.198 843.016C649.589 842.784 648.969 842.563 648.339 842.353C640.432 839.591 631.294 838.184 620.925 838.13C620.867 838.13 620.808 838.13 620.749 838.13C620.712 838.129 620.675 838.129 620.637 838.129C620.583 838.129 620.529 838.129 620.474 838.129C620.419 838.129 620.363 838.129 620.307 838.129H577.491ZM694.312 979.633V974.633V907V863V838.129H740.583C750.311 838.129 759.015 839.473 766.695 842.161C774.375 844.721 780.455 849.009 784.935 855.025C786.701 857.345 788.119 860.004 789.189 863C790.833 867.607 791.656 873.012 791.656 879.217C791.656 882.297 791.437 885.208 790.999 887.951C790.037 893.984 788.015 899.201 784.935 903.601C784.104 904.789 783.217 905.922 782.275 907C782.095 907.206 781.913 907.409 781.73 907.611C781.424 907.947 781.112 908.277 780.795 908.602C776.924 912.564 772.224 915.697 766.695 918.001C766.031 918.267 765.359 918.521 764.68 918.763C763.806 919.076 762.919 919.369 762.02 919.643L793.761 974.633L796.648 979.633H771.495L768.706 974.633L739.68 922.609H716.583V974.633V979.633H694.312ZM812.631 838.129V863V907V974.633V979.633H898.264V974.633V960.625H834.904V915.121H886.744V907V896.305H834.904V863V856.945H896.151V838.129H812.631Z" fill="black"/>
<path fill-rule="evenodd" clip-rule="evenodd" d="M716.583 904.753H737.896C737.915 904.753 737.935 904.753 737.955 904.753C737.994 904.753 738.034 904.753 738.073 904.753C738.084 904.753 738.094 904.753 738.104 904.753C738.17 904.752 738.236 904.752 738.301 904.752C738.336 904.752 738.37 904.751 738.404 904.751C738.428 904.751 738.451 904.751 738.475 904.751C738.48 904.751 738.485 904.75 738.49 904.75C738.541 904.75 738.591 904.75 738.641 904.749C738.663 904.749 738.685 904.749 738.707 904.748C738.709 904.748 738.711 904.748 738.713 904.748C738.758 904.748 738.802 904.747 738.847 904.747C738.864 904.746 738.881 904.746 738.898 904.746C739.037 904.744 739.175 904.742 739.313 904.739C739.479 904.736 739.645 904.732 739.81 904.727L739.812 904.727C739.825 904.727 739.839 904.727 739.852 904.726C739.891 904.725 739.931 904.724 739.97 904.723C739.976 904.723 739.982 904.723 739.988 904.722C740.024 904.721 740.061 904.72 740.097 904.719C740.13 904.718 740.163 904.717 740.197 904.716C740.269 904.714 740.342 904.711 740.415 904.708C749.425 904.385 756.393 902.287 761.319 898.417C766.823 894.065 769.576 887.665 769.576 879.217C769.576 871.903 767.574 866.497 763.57 863C762.88 862.397 762.129 861.85 761.319 861.361C761.078 861.206 760.833 861.054 760.582 860.906C760.538 860.88 760.493 860.854 760.449 860.828C755.817 858.137 749.542 856.613 741.622 856.258C741.435 856.249 741.249 856.242 741.061 856.235C740.185 856.202 739.289 856.183 738.374 856.178C738.215 856.177 738.055 856.177 737.896 856.177H716.583V863V904.753ZM599.763 908.017H619.156C619.816 908.017 620.467 908.009 621.108 907.994C621.14 907.993 621.173 907.992 621.205 907.991C621.244 907.99 621.282 907.99 621.321 907.988C624.859 907.894 628.093 907.565 631.023 907C636.419 905.961 640.783 904.123 644.115 901.489C646.748 899.407 648.751 896.769 650.124 893.575C650.162 893.489 650.198 893.402 650.235 893.314C651.659 889.885 652.371 885.825 652.371 881.137C652.371 872.824 650.153 866.778 645.716 863C645.098 862.474 644.436 861.991 643.732 861.553C637.972 857.969 629.459 856.177 618.195 856.177H599.763V863V907V908.017Z" fill="black"/>
<path fill-rule="evenodd" clip-rule="evenodd" d="M0 619V839C0 852.255 10.7452 863 24 863H400V821.633C400 776.345 436.713 739.633 482 739.633H986C999.713 739.633 1012.64 742.999 1024 748.95V619C1024 588.072 998.928 563 968 563H698.658L527.837 697.732C506.047 714.919 475.313 714.919 453.523 697.732L282.702 563H56C25.0721 563 0 588.072 0 619ZM192.218 748.674L192.218 748.589C186.215 741.437 172.587 726.753 166.295 720.311C164.141 718.105 159.503 713.49 154.324 708.421C154.308 709.554 154.3 710.602 154.3 711.54C154.3 720.718 154.815 735.675 155.524 744.817H156.11V748.817C156.11 756.567 149.95 763.011 142.153 763.011C134.357 763.011 128.197 756.567 128.197 748.817V744.817H128.782C129.492 735.675 130.007 720.718 130.007 711.54C130.007 704.155 129.491 690.141 128.777 680.727C128.704 679.757 128.589 679.14 128.502 678.733L128.488 678.672L128.475 678.611C128.46 678.546 128.445 678.481 128.43 678.415L128.42 678.372C128.399 678.282 128.373 678.167 128.35 678.063L128.346 678.044C128.305 677.856 128.187 677.316 128.2 676.701C128.366 669.095 134.465 662.826 142.153 662.826C147.281 662.826 151.721 665.635 154.136 669.74C154.646 670.607 155.068 671.535 155.389 672.509C162.318 680.536 178.706 697.978 183.539 702.926C186.052 705.499 189.879 709.3 194.021 713.334C194.026 712.663 194.028 712.017 194.028 711.397C194.028 704.012 193.512 689.998 192.799 680.584C192.724 679.601 192.606 678.932 192.516 678.499L192.503 678.435L192.49 678.376L192.473 678.297L192.457 678.227L192.437 678.139L192.421 678.068L192.421 678.067L192.394 677.952L192.379 677.884C192.372 677.857 192.365 677.824 192.357 677.787C192.337 677.699 192.314 677.587 192.294 677.469L192.293 677.467C192.273 677.353 192.211 676.992 192.222 676.545C192.394 668.945 198.49 662.683 206.175 662.683C213.863 662.683 219.962 668.952 220.128 676.558C220.138 677.008 220.071 677.377 220.05 677.491L220.05 677.494C220.021 677.652 219.987 677.802 219.967 677.89L219.932 678.041L219.914 678.119L219.898 678.192C219.877 678.285 219.855 678.38 219.832 678.495C219.742 678.927 219.626 679.598 219.551 680.584C218.837 689.998 218.321 704.012 218.321 711.397C218.321 720.575 218.836 735.532 219.546 744.674H220.131V748.674C220.131 756.424 213.971 762.868 206.175 762.868C198.378 762.868 192.218 756.424 192.218 748.674Z" fill="black"/>
<path d="M0 918.633C0 949.561 25.0721 974.633 56 974.633H400V907H24C15.5515 907 7.46311 905.46 0 902.644V918.633Z" fill="black"/>
</g>
<defs>
<clipPath id="clip0_325_149">
<rect width="1024" height="1024" fill="white"/>
</clipPath>
</defs>
</svg>
